<svg width="209" height="75" viewBox="0 0 209 75" fill="none" xmlns="http://www.w3.org/2000/svg">
<path d="M38.6899 40.5986L36.9902 41.7222C35.9531 40.1857 34.5991 38.9757 32.9282 38.0923C31.2765 37.1896 29.4808 36.7383 27.541 36.7383C24.3913 36.7383 21.7025 37.8522 19.4746 40.0801C17.2467 42.3079 16.1328 44.9967 16.1328 48.1465C16.1328 51.2962 17.2467 53.985 19.4746 56.2129C21.7025 58.4408 24.3913 59.5547 27.541 59.5547C29.4808 59.5547 31.2765 59.1034 32.9282 58.2007C34.5991 57.298 35.9531 56.0785 36.9902 54.542L38.6611 55.752C37.432 57.5573 35.8379 58.9881 33.8789 60.0444C31.9199 61.1007 29.8073 61.6289 27.541 61.6289C25.7165 61.6289 23.9688 61.2736 22.2979 60.563C20.6462 59.8524 19.2153 58.8921 18.0054 57.6821C16.7954 56.4722 15.8351 55.0413 15.1245 53.3896C14.4139 51.7188 14.0586 49.971 14.0586 48.1465C14.0586 46.3219 14.4139 44.5838 15.1245 42.9321C15.8351 41.2612 16.7954 39.8208 18.0054 38.6108C19.2153 37.4009 20.6462 36.4406 22.2979 35.73C23.9688 35.0194 25.7165 34.6641 27.541 34.6641C29.8265 34.6641 31.9487 35.2018 33.9077 36.2773C35.8667 37.3337 37.4608 38.7741 38.6899 40.5986ZM42.1182 38.2363L40.3896 39.3599C38.9684 37.2856 37.1247 35.6436 34.8584 34.4336C32.6113 33.2044 30.1722 32.5898 27.541 32.5898C24.7178 32.5898 22.1154 33.2909 19.7339 34.6929C17.3524 36.0757 15.4606 37.9578 14.0586 40.3394C12.6758 42.7209 11.9844 45.3232 11.9844 48.1465C11.9844 50.9697 12.6758 53.5721 14.0586 55.9536C15.4606 58.3351 17.3524 60.2269 19.7339 61.6289C22.1154 63.0117 24.7178 63.7031 27.541 63.7031C30.1722 63.7031 32.6209 63.0885 34.8872 61.8594C37.1535 60.6302 38.9972 58.9689 40.4185 56.8755L42.1182 58.0566C40.5049 60.4382 38.4115 62.3203 35.8379 63.7031C33.2835 65.0859 30.5179 65.7773 27.541 65.7773C24.3529 65.7773 21.4048 64.9899 18.6968 63.415C15.9888 61.8402 13.8473 59.6987 12.2725 56.9907C10.6976 54.2827 9.91016 51.3346 9.91016 48.1465C9.91016 44.9583 10.6976 42.0103 12.2725 39.3022C13.8473 36.5942 15.9888 34.4528 18.6968 32.8779C21.4048 31.3031 24.3529 30.5156 27.541 30.5156C30.5179 30.5156 33.2835 31.207 35.8379 32.5898C38.4115 33.9727 40.5049 35.8548 42.1182 38.2363ZM45.5752 35.9316L43.8467 37.0552C42.0413 34.4048 39.6982 32.3114 36.8174 30.7749C33.9557 29.2192 30.8636 28.4414 27.541 28.4414C24.8714 28.4414 22.3171 28.96 19.8779 29.9971C17.4388 31.0342 15.3358 32.4362 13.5688 34.2031C11.8211 35.9508 10.4287 38.0443 9.3916 40.4834C8.35449 42.9225 7.83594 45.4769 7.83594 48.1465C7.83594 50.8161 8.35449 53.3704 9.3916 55.8096C10.4287 58.2487 11.8211 60.3517 13.5688 62.1187C15.3358 63.8664 17.4388 65.2588 19.8779 66.2959C22.3171 67.333 24.8714 67.8516 27.541 67.8516C30.8828 67.8516 33.9845 67.0737 36.8462 65.5181C39.7078 63.9624 42.0413 61.8594 43.8467 59.209L45.5176 60.4478C43.5202 63.367 40.937 65.6813 37.7681 67.3906C34.6183 69.0807 31.2093 69.9258 27.541 69.9258C23.6038 69.9258 19.9644 68.9559 16.6226 67.0161C13.2808 65.0571 10.6304 62.4067 8.67139 59.0649C6.73161 55.7231 5.76172 52.0837 5.76172 48.1465C5.76172 44.2093 6.73161 40.5698 8.67139 37.228C10.6304 33.8862 13.2808 31.2454 16.6226 29.3057C19.9644 27.3467 23.6038 26.3672 27.541 26.3672C31.2285 26.3672 34.6567 27.2314 37.8257 28.96C40.9946 30.6693 43.5778 32.9932 45.5752 35.9316ZM48.9746 33.5693L47.2461 34.6929C45.0566 31.4855 42.2238 28.9504 38.7476 27.0874C35.2905 25.2244 31.555 24.293 27.541 24.293C24.3145 24.293 21.2223 24.9268 18.2646 26.1943C15.3262 27.4427 12.791 29.1328 10.6592 31.2646C8.52734 33.3965 6.82764 35.9412 5.56006 38.8989C4.31169 41.8374 3.6875 44.9199 3.6875 48.1465C3.6875 51.373 4.31169 54.4652 5.56006 57.4229C6.82764 60.3613 8.52734 62.8965 10.6592 65.0283C12.791 67.1602 15.3262 68.8599 18.2646 70.1274C21.2223 71.3758 24.3145 72 27.541 72C31.555 72 35.3001 71.0589 38.7764 69.1768C42.2526 67.2946 45.0854 64.7498 47.2749 61.5425L48.9458 62.8101C46.5643 66.2671 43.4914 69.0135 39.7271 71.0493C35.9627 73.0659 31.9007 74.0742 27.541 74.0742C24.0264 74.0742 20.6654 73.3828 17.458 72C14.2699 70.6364 11.5138 68.8022 9.18994 66.4976C6.88525 64.1737 5.0415 61.4176 3.65869 58.2295C2.29508 55.0221 1.61328 51.6611 1.61328 48.1465C1.61328 44.6318 2.29508 41.2804 3.65869 38.0923C5.0415 34.8849 6.88525 32.1289 9.18994 29.8242C11.5138 27.5003 14.2699 25.6566 17.458 24.293C20.6654 22.9102 24.0264 22.2188 27.541 22.2188C31.9199 22.2188 35.9915 23.2367 39.7559 25.2725C43.5202 27.3083 46.5931 30.0739 48.9746 33.5693ZM52.979 24.293H55.0532V72H52.979V24.293ZM65.4243 24.293H67.4985V61.6289H84.0923V63.7031H67.4985V65.7773H84.0923V67.8516H67.4985V69.9258H84.0923V72H65.4243V24.293ZM61.2759 24.293H63.3501V72H61.2759V24.293ZM57.1274 24.293H59.2017V72H57.1274V24.293ZM101.147 24.293H103.221V72H101.147V24.293ZM96.9985 24.293H99.0728V72H96.9985V24.293ZM92.8501 24.293H94.9243V72H92.8501V24.293ZM88.7017 24.293H90.7759V72H88.7017V24.293ZM144.706 40.5986L143.006 41.7222C141.969 40.1857 140.615 38.9757 138.944 38.0923C137.292 37.1896 135.496 36.7383 133.557 36.7383C130.407 36.7383 127.718 37.8522 125.49 40.0801C123.262 42.3079 122.148 44.9967 122.148 48.1465C122.148 51.2962 123.262 53.985 125.49 56.2129C127.718 58.4408 130.407 59.5547 133.557 59.5547C135.496 59.5547 137.292 59.1034 138.944 58.2007C140.615 57.298 141.969 56.0785 143.006 54.542L144.677 55.752C143.448 57.5573 141.854 58.9881 139.895 60.0444C137.936 61.1007 135.823 61.6289 133.557 61.6289C131.732 61.6289 129.984 61.2736 128.313 60.563C126.662 59.8524 125.231 58.8921 124.021 57.6821C122.811 56.4722 121.851 55.0413 121.14 53.3896C120.43 51.7188 120.074 49.971 120.074 48.1465C120.074 46.3219 120.43 44.5838 121.14 42.9321C121.851 41.2612 122.811 39.8208 124.021 38.6108C125.231 37.4009 126.662 36.4406 128.313 35.73C129.984 35.0194 131.732 34.6641 133.557 34.6641C135.842 34.6641 137.964 35.2018 139.923 36.2773C141.882 37.3337 143.476 38.7741 144.706 40.5986ZM148.134 38.2363L146.405 39.3599C144.984 37.2856 143.14 35.6436 140.874 34.4336C138.627 33.2044 136.188 32.5898 133.557 32.5898C130.733 32.5898 128.131 33.2909 125.75 34.6929C123.368 36.0757 121.476 37.9578 120.074 40.3394C118.691 42.7209 118 45.3232 118 48.1465C118 50.9697 118.691 53.5721 120.074 55.9536C121.476 58.3351 123.368 60.2269 125.75 61.6289C128.131 63.0117 130.733 63.7031 133.557 63.7031C136.188 63.7031 138.637 63.0885 140.903 61.8594C143.169 60.6302 145.013 58.9689 146.434 56.8755L148.134 58.0566C146.521 60.4382 144.427 62.3203 141.854 63.7031C139.299 65.0859 136.534 65.7773 133.557 65.7773C130.368 65.7773 127.42 64.9899 124.712 63.415C122.004 61.8402 119.863 59.6987 118.288 56.9907C116.713 54.2827 115.926 51.3346 115.926 48.1465C115.926 44.9583 116.713 42.0103 118.288 39.3022C119.863 36.5942 122.004 34.4528 124.712 32.8779C127.42 31.3031 130.368 30.5156 133.557 30.5156C136.534 30.5156 139.299 31.207 141.854 32.5898C144.427 33.9727 146.521 35.8548 148.134 38.2363ZM151.591 35.9316L149.862 37.0552C148.057 34.4048 145.714 32.3114 142.833 30.7749C139.971 29.2192 136.879 28.4414 133.557 28.4414C130.887 28.4414 128.333 28.96 125.894 29.9971C123.454 31.0342 121.351 32.4362 119.584 34.2031C117.837 35.9508 116.444 38.0443 115.407 40.4834C114.37 42.9225 113.852 45.4769 113.852 48.1465C113.852 50.8161 114.37 53.3704 115.407 55.8096C116.444 58.2487 117.837 60.3517 119.584 62.1187C121.351 63.8664 123.454 65.2588 125.894 66.2959C128.333 67.333 130.887 67.8516 133.557 67.8516C136.898 67.8516 140 67.0737 142.862 65.5181C145.723 63.9624 148.057 61.8594 149.862 59.209L151.533 60.4478C149.536 63.367 146.953 65.6813 143.784 67.3906C140.634 69.0807 137.225 69.9258 133.557 69.9258C129.619 69.9258 125.98 68.9559 122.638 67.0161C119.296 65.0571 116.646 62.4067 114.687 59.0649C112.747 55.7231 111.777 52.0837 111.777 48.1465C111.777 44.2093 112.747 40.5698 114.687 37.228C116.646 33.8862 119.296 31.2454 122.638 29.3057C125.98 27.3467 129.619 26.3672 133.557 26.3672C137.244 26.3672 140.672 27.2314 143.841 28.96C147.01 30.6693 149.593 32.9932 151.591 35.9316ZM154.99 33.5693L153.262 34.6929C151.072 31.4855 148.239 28.9504 144.763 27.0874C141.306 25.2244 137.571 24.293 133.557 24.293C130.33 24.293 127.238 24.9268 124.28 26.1943C121.342 27.4427 118.807 29.1328 116.675 31.2646C114.543 33.3965 112.843 35.9412 111.576 38.8989C110.327 41.8374 109.703 44.9199 109.703 48.1465C109.703 51.373 110.327 54.4652 111.576 57.4229C112.843 60.3613 114.543 62.8965 116.675 65.0283C118.807 67.1602 121.342 68.8599 124.28 70.1274C127.238 71.3758 130.33 72 133.557 72C137.571 72 141.316 71.0589 144.792 69.1768C148.268 67.2946 151.101 64.7498 153.291 61.5425L154.961 62.8101C152.58 66.2671 149.507 69.0135 145.743 71.0493C141.978 73.0659 137.916 74.0742 133.557 74.0742C130.042 74.0742 126.681 73.3828 123.474 72C120.285 70.6364 117.529 68.8022 115.206 66.4976C112.901 64.1737 111.057 61.4176 109.674 58.2295C108.311 55.0221 107.629 51.6611 107.629 48.1465C107.629 44.6318 108.311 41.2804 109.674 38.0923C111.057 34.8849 112.901 32.1289 115.206 29.8242C117.529 27.5003 120.285 25.6566 123.474 24.293C126.681 22.9102 130.042 22.2188 133.557 22.2188C137.936 22.2188 142.007 23.2367 145.771 25.2725C149.536 27.3083 152.609 30.0739 154.99 33.5693ZM173.514 72H171.44V24.293H173.514V72ZM169.366 72H167.292V24.293H169.366V72ZM165.217 72H163.143V24.293H165.217V72ZM161.069 72H158.995V24.293H161.069V72ZM188.667 48.1465L200.854 24.293H203.158L190.972 48.1465L203.158 72H200.854L188.667 48.1465ZM184.029 48.1465L196.215 24.293H198.52L186.334 48.1465L198.52 72H196.215L184.029 48.1465ZM179.391 48.1465L191.577 24.293H193.882L181.696 48.1465L193.882 72H191.577L179.391 48.1465ZM174.724 48.1465L186.939 24.293H189.244L177.029 48.1465L189.244 72H186.939L174.724 48.1465Z" fill="#2C99E9"/>
<path d="M40.0308 25.36C39.7908 26.5333 39.4975 27.76 39.1508 29.04C38.8042 30.2933 38.3375 31.44 37.7508 32.48C37.1908 33.4933 36.4975 34.3467 35.6708 35.04C34.8708 35.7067 33.9108 36.04 32.7908 36.04C32.0442 36.04 31.2308 35.88 30.3508 35.56C29.4975 35.24 28.5508 34.6933 27.5108 33.92L30.2708 27.76C30.4042 28.0267 30.6575 28.2667 31.0308 28.48C31.4308 28.6667 31.8575 28.76 32.3108 28.76C32.6308 28.76 32.9108 28.4933 33.1508 27.96C33.4175 27.4267 33.6442 26.8133 33.8308 26.12C34.0175 25.4 34.1642 24.6667 34.2708 23.92C34.3775 23.1733 34.4575 22.5733 34.5108 22.12C35.0175 19.5333 35.4975 16.96 35.9508 14.4C36.4042 11.8133 36.9375 9.24 37.5508 6.68C38.7508 6.57333 39.9242 6.41333 41.0708 6.2C42.2442 5.96 43.4175 5.68 44.5908 5.36C44.1908 6.72 43.7775 8.26667 43.3508 10C42.9242 11.7333 42.5108 13.5067 42.1108 15.32C41.7108 17.1333 41.3242 18.92 40.9508 20.68C40.6042 22.4133 40.2975 23.9733 40.0308 25.36ZM56.4027 28.2C56.0294 29.72 55.496 31.0133 54.8027 32.08C54.136 33.1467 53.336 34.0267 52.4027 34.72C51.496 35.4133 50.5227 35.92 49.4827 36.24C48.4427 36.56 47.4027 36.72 46.3627 36.72C45.7494 36.72 45.1227 36.6133 44.4827 36.4C43.8427 36.2133 43.2694 35.92 42.7627 35.52C42.256 35.12 41.8294 34.6133 41.4827 34C41.1627 33.3867 41.0027 32.6667 41.0027 31.84C41.0027 31.7333 41.0027 31.6267 41.0027 31.52C41.0027 31.4133 41.016 31.3067 41.0427 31.2C41.1494 30.1067 41.3227 28.7867 41.5627 27.24C41.8027 25.6933 42.056 24.08 42.3227 22.4C42.5894 20.72 42.8827 19.04 43.2027 17.36C43.5227 15.6533 43.8027 14.1067 44.0427 12.72C44.3094 11.3333 44.536 10.1867 44.7227 9.28C44.9094 8.34667 45.0294 7.77333 45.0827 7.56C45.6427 7.50666 46.3094 7.44 47.0827 7.36C47.856 7.28 48.576 7.21333 49.2427 7.16C50.0694 7.08 50.8827 7 51.6827 6.92C50.9894 10.1467 50.376 13.0667 49.8427 15.68C49.6027 16.8 49.3627 17.92 49.1227 19.04C48.9094 20.16 48.696 21.1867 48.4827 22.12C48.296 23.0533 48.1227 23.8667 47.9627 24.56C47.8294 25.2267 47.7094 25.7733 47.6027 26.2C47.5227 26.6267 47.416 27.1733 47.2827 27.84C47.176 28.48 47.1227 29.0667 47.1227 29.6C47.1227 30.0267 47.2294 30.3867 47.4427 30.68C47.656 30.9467 47.9227 31.08 48.2427 31.08C48.696 31.08 49.0694 30.9067 49.3627 30.56C49.656 30.1867 49.896 29.7467 50.0827 29.24C50.296 28.7333 50.4427 28.2267 50.5227 27.72C50.6294 27.1867 50.7227 26.7733 50.8027 26.48C50.9627 25.7067 51.136 24.8533 51.3227 23.92C51.536 22.96 51.736 21.9733 51.9227 20.96C52.136 19.92 52.336 18.8667 52.5227 17.8C52.736 16.7333 52.936 15.6933 53.1227 14.68C53.576 12.3333 54.016 9.90666 54.4427 7.4L60.5227 7C60.5227 7 60.456 7.34667 60.3227 8.04C60.1894 8.73333 60.016 9.65333 59.8027 10.8C59.5894 11.9467 59.3494 13.2533 59.0827 14.72C58.8427 16.1867 58.5627 17.72 58.2427 19.32C57.9227 20.8933 57.6027 22.4533 57.2827 24C56.9894 25.52 56.696 26.92 56.4027 28.2ZM74.2405 26.12C74.2405 27.6133 73.9472 28.9733 73.3605 30.2C72.8005 31.4 72.0272 32.44 71.0405 33.32C70.0805 34.2 68.9338 34.88 67.6005 35.36C66.2938 35.84 64.8805 36.08 63.3605 36.08C62.2938 36.08 61.2272 35.8 60.1605 35.24C59.0938 34.6533 58.0672 33.7333 57.0805 32.48L60.0405 26.68C60.2272 27.0267 60.5072 27.3867 60.8805 27.76C61.2538 28.1067 61.6672 28.4133 62.1205 28.68C62.6005 28.9467 63.0672 29.1733 63.5205 29.36C64.0005 29.52 64.4272 29.6 64.8005 29.6C65.1205 29.6 65.4538 29.5467 65.8005 29.44C66.1472 29.3333 66.4672 29.1733 66.7605 28.96C67.0538 28.7467 67.2805 28.5067 67.4405 28.24C67.6272 27.9467 67.7205 27.6133 67.7205 27.24C67.7205 26.6 67.5072 26.0133 67.0805 25.48C66.6805 24.92 66.1738 24.4 65.5605 23.92C64.9472 23.4133 64.2805 22.9067 63.5605 22.4C62.8405 21.8933 62.1738 21.36 61.5605 20.8C60.9738 20.24 60.4672 19.6133 60.0405 18.92C59.6138 18.2267 59.4005 17.4533 59.4005 16.6C59.4005 15.2133 59.8138 13.92 60.6405 12.72C61.4672 11.52 62.4938 10.4933 63.7205 9.64C64.9738 8.76 66.3338 8.06667 67.8005 7.56C69.2672 7.05333 70.6538 6.8 71.9605 6.8C72.6805 6.8 73.3605 6.89333 74.0005 7.08C74.6405 7.24 75.1872 7.52 75.6405 7.92C76.1205 8.29333 76.4938 8.77333 76.7605 9.36C77.0538 9.94667 77.2005 10.68 77.2005 11.56C77.2005 11.9333 77.1605 12.3067 77.0805 12.68C77.0272 13.0533 76.9738 13.4533 76.9205 13.88L71.1205 15.56C71.1738 15.3467 71.2138 15.1333 71.2405 14.92C71.2938 14.7067 71.3205 14.4933 71.3205 14.28C71.3205 13.48 71.1738 12.9067 70.8805 12.56C70.6138 12.1867 70.2538 12 69.8005 12C69.5872 12 69.3205 12.08 69.0005 12.24C68.7072 12.4 68.4005 12.6133 68.0805 12.88C67.7872 13.12 67.5338 13.4133 67.3205 13.76C67.1072 14.1067 67.0005 14.48 67.0005 14.88C67.0005 15.52 67.1738 16.0533 67.5205 16.48C67.8938 16.9067 68.3472 17.3067 68.8805 17.68C69.4138 18.0533 69.9872 18.44 70.6005 18.84C71.2405 19.2133 71.8272 19.7067 72.3605 20.32C72.8938 20.9333 73.3338 21.7067 73.6805 22.64C74.0538 23.5467 74.2405 24.7067 74.2405 26.12ZM77.308 36.04C77.9213 33.1067 78.508 30.2133 79.068 27.36C79.308 26.16 79.548 24.9067 79.788 23.6C80.028 22.2933 80.2547 21.0133 80.468 19.76C80.708 18.48 80.908 17.2533 81.068 16.08C81.2547 14.88 81.4147 13.7867 81.548 12.8C80.9347 12.72 80.308 12.6933 79.668 12.72C79.0547 12.7467 78.4413 12.6667 77.828 12.48C77.8547 12.0533 77.868 11.56 77.868 11C77.868 10.44 77.8813 9.88 77.908 9.32C77.9347 8.70666 77.9613 8.05333 77.988 7.36C78.6813 7.41333 79.3747 7.45333 80.068 7.48C80.7613 7.50667 81.4547 7.52 82.148 7.52C83.508 7.52 84.8147 7.49333 86.068 7.44C87.348 7.36 88.5213 7.28 89.588 7.2C90.6813 7.09333 91.748 6.97333 92.788 6.84L92.348 9C92.2147 9.61333 92.0813 10.24 91.948 10.88C91.8413 11.52 91.7347 12.0667 91.628 12.52C91.0413 12.68 90.4413 12.8 89.828 12.88C89.2413 12.9333 88.6547 13.0133 88.068 13.12C87.8813 14.0267 87.6813 15.04 87.468 16.16C87.2547 17.2533 87.0413 18.4 86.828 19.6C86.6413 20.7733 86.4547 21.9733 86.268 23.2C86.0813 24.4267 85.8947 25.6 85.708 26.72C85.2813 29.36 84.8813 32.0933 84.508 34.92L77.308 36.04Z" fill="black"/>
</svg>
