<svg width="80" height="78" viewBox="0 0 80 78" fill="none" xmlns="http://www.w3.org/2000/svg">
<ellipse cx="40" cy="38.9041" rx="40" ry="38.9041" fill="white"/>
<path d="M38.4951 46.684C38.4951 48.0333 38.3044 49.2653 37.9231 50.38C37.5417 51.4653 36.8671 52.404 35.8991 53.196C34.9604 53.9587 33.6551 54.56 31.9831 55C30.3111 55.44 28.1844 55.66 25.6031 55.66C23.0511 55.66 20.9391 55.44 19.2671 55C17.6244 54.56 16.3191 53.9587 15.3511 53.196C14.4124 52.404 13.7524 51.4653 13.3711 50.38C13.0191 49.2653 12.8431 48.0333 12.8431 46.684V39.556C12.8431 38.9987 12.9604 38.6027 13.1951 38.368C13.4591 38.104 13.8697 37.972 14.4271 37.972H20.8071C21.3644 37.972 21.7604 38.104 21.9951 38.368C22.2591 38.6027 22.3911 38.9987 22.3911 39.556V44.924C22.3911 45.5107 22.5671 46.0093 22.9191 46.42C23.3004 46.8013 24.1657 46.992 25.5151 46.992C26.7764 46.992 27.5684 46.8013 27.8911 46.42C28.2431 46.0093 28.4191 45.5107 28.4191 44.924V24.904C28.4191 24.3467 28.5364 23.9507 28.7711 23.716C29.0351 23.452 29.4457 23.32 30.0031 23.32H36.9111C37.4684 23.32 37.8644 23.452 38.0991 23.716C38.3631 23.9507 38.4951 24.3467 38.4951 24.904V46.684Z" fill="black"/>
<path d="M65.444 55H54.708C51.0414 55 48.3134 54.2667 46.524 52.8C44.764 51.3333 43.884 49.0747 43.884 46.024V32.34C43.884 29.2893 44.764 27.0307 46.524 25.564C48.3134 24.068 51.0414 23.32 54.708 23.32H65.444C66.0014 23.32 66.3974 23.452 66.632 23.716C66.896 23.9507 67.028 24.3467 67.028 24.904V30.228C67.028 30.7853 66.896 31.196 66.632 31.46C66.3974 31.6947 66.0014 31.812 65.444 31.812H56.6C55.6907 31.812 55.016 32.0027 54.576 32.384C54.136 32.736 53.916 33.2787 53.916 34.012V44.484C53.916 45.2173 54.136 45.76 54.576 46.112C55.016 46.4347 55.6907 46.596 56.6 46.596H65.444C66.0014 46.596 66.3974 46.728 66.632 46.992C66.896 47.2267 67.028 47.6227 67.028 48.18V53.416C67.028 53.9733 66.896 54.384 66.632 54.648C66.3974 54.8827 66.0014 55 65.444 55Z" fill="#2C99E9"/>
</svg>
