<svg width="1826" height="939" viewBox="0 0 1826 939" fill="none" xmlns="http://www.w3.org/2000/svg">
<rect x="775.937" y="1226.39" width="497" height="59" transform="rotate(-90 775.937 1226.39)" fill="#4EA9EB"/>
<rect x="776" y="1226" width="666" height="59" transform="rotate(-90 776 1226)" fill="#4EA9EB"/>
<rect x="875" y="1226" width="718" height="59" transform="rotate(-90 875 1226)" fill="#4EA9EB"/>
<rect x="974" y="1226" width="822" height="59" transform="rotate(-90 974 1226)" fill="#4EA9EB"/>
<rect x="1077" y="1223" width="637" height="59" transform="rotate(-90 1077 1223)" fill="#4EA9EB"/>
<rect x="1172" y="1225" width="697" height="59" transform="rotate(-90 1172 1225)" fill="#4EA9EB"/>
<rect x="1271" y="1224" width="628" height="59" transform="rotate(-90 1271 1224)" fill="#4EA9EB"/>
<rect x="1370" y="1224" width="678" height="59" transform="rotate(-90 1370 1224)" fill="#4EA9EB"/>
<rect x="1469" y="1224" width="436" height="59" transform="rotate(-90 1469 1224)" fill="#4EA9EB"/>
<rect x="1568" y="1223" width="725" height="59" transform="rotate(-90 1568 1223)" fill="#4EA9EB"/>
<rect x="1668" y="1223" width="472" height="59" transform="rotate(-90 1668 1223)" fill="#4EA9EB"/>
<rect x="1767" y="1223" width="663" height="59" transform="rotate(-90 1767 1223)" fill="#4EA9EB"/>
<rect x="679" y="1226" width="698" height="59" transform="rotate(-90 679 1226)" fill="#4EA9EB"/>
<rect x="581.885" y="1226.28" width="316" height="59" transform="rotate(-90 581.885 1226.28)" fill="#4EA9EB"/>
<rect x="482.956" y="1226.22" width="564" height="59" transform="rotate(-90 482.956 1226.22)" fill="#4EA9EB"/>
<rect x="482.956" y="1226.22" width="564" height="59" transform="rotate(-90 482.956 1226.22)" fill="#4EA9EB"/>
<rect x="387.906" y="1226.17" width="388" height="59" transform="rotate(-90 387.906 1226.17)" fill="#4EA9EB"/>
<rect x="387.906" y="1226.17" width="388" height="59" transform="rotate(-90 387.906 1226.17)" fill="#4EA9EB"/>
<rect x="291.081" y="1226.11" width="1000" height="59" transform="rotate(-90 291.081 1226.11)" fill="#4EA9EB"/>
<rect x="291.081" y="1226.11" width="1000" height="59" transform="rotate(-90 291.081 1226.11)" fill="#4EA9EB"/>
<rect x="193.926" y="1226.06" width="459" height="59" transform="rotate(-90 193.926 1226.06)" fill="#4EA9EB"/>
<rect x="193.926" y="1226.06" width="459" height="59" transform="rotate(-90 193.926 1226.06)" fill="#4EA9EB"/>
<rect x="97.1458" y="1226" width="1226" height="59" transform="rotate(-90 97.1458 1226)" fill="#4EA9EB"/>
<rect x="97.1458" y="1226" width="1226" height="59" transform="rotate(-90 97.1458 1226)" fill="#4EA9EB"/>
<rect y="1225.94" width="718" height="59" transform="rotate(-90 0 1225.94)" fill="#4EA9EB"/>
<rect y="1225.94" width="718" height="59" transform="rotate(-90 0 1225.94)" fill="#4EA9EB"/>
</svg>
